<svg width="231" height="80" viewBox="0 0 231 80" fill="none" xmlns="http://www.w3.org/2000/svg">
<path d="M51.073 38.6018V27.3182C51.073 14.8547 40.9693 4.75107 28.5058 4.75107V4.75107C16.0423 4.75107 5.93866 14.8547 5.93866 27.3182V61.7628" stroke="#AC60BD" stroke-width="9.50196" stroke-linecap="round"/>
<path d="M28.506 41.571L28.506 52.2607C28.506 64.7242 38.6097 74.8279 51.0731 74.8279V74.8279C63.5366 74.8279 73.6403 64.7242 73.6403 52.2607L73.6403 17.8161" stroke="#AC60BD" stroke-width="9.50196" stroke-linecap="round"/>
<path d="M4.75165 40.3833H74.8286" stroke="#AC60BD" stroke-width="9.50196"/>
<rect x="4.75098" y="4.75098" width="70.077" height="70.077" rx="19.0039" stroke="#AC60BD" stroke-width="9.50196"/>
<path d="M111.206 20.125C110.29 19.875 109.623 19.5833 109.206 19.25C108.831 18.9167 108.644 18.4167 108.644 17.75C108.644 16.4583 109.269 15.8125 110.519 15.8125H125.581C130.54 15.8125 134.394 17.0208 137.144 19.4375C139.894 21.8542 141.269 25 141.269 28.875C141.269 33.2917 139.769 36.6667 136.769 39C133.81 41.3333 129.602 42.5 124.144 42.5H121.956C120.915 42.5 120.394 41.625 120.394 39.875C120.394 38.125 120.852 37.25 121.769 37.25H123.394C126.519 37.25 128.935 36.5625 130.644 35.1875C132.352 33.8125 133.206 31.6875 133.206 28.8125C133.248 26.3542 132.456 24.4375 130.831 23.0625C129.206 21.6458 127.394 20.9375 125.394 20.9375H122.394C120.685 20.9375 119.831 21.75 119.831 23.375V61.875H112.331V23.5C112.331 22.1667 112.206 21.2917 111.956 20.875C111.706 20.4583 111.456 20.2083 111.206 20.125ZM158.406 15.8125L167.906 49.9375L177.969 15.875L188.531 15.8125V61.875H181.156V30.125L172.094 58.9375C171.76 59.9792 171.281 60.7292 170.656 61.1875C170.031 61.6458 169.219 61.875 168.219 61.875H163.969L155.156 29.125V61.875H148.219V23.4375C148.219 22.1458 148.135 21.3125 147.969 20.9375C147.802 20.5208 147.531 20.25 147.156 20.125C146.448 19.8333 145.906 19.5417 145.531 19.25C145.156 18.9583 144.969 18.5208 144.969 17.9375C144.969 16.5208 145.865 15.8125 147.656 15.8125H158.406ZM222.106 61.875L217.544 47.5H205.356L200.856 61.875H193.294L205.419 24.1875C206.085 22.1042 206.335 20.9375 206.169 20.6875C206.044 20.3958 205.773 20.2083 205.356 20.125C204.44 19.875 203.773 19.6042 203.356 19.3125C202.94 18.9792 202.731 18.4375 202.731 17.6875C202.731 16.4375 203.565 15.8125 205.231 15.8125H215.169L230.419 61.875H222.106ZM215.794 42.125L211.356 28.1875L207.044 42.125H215.794Z" fill="#4F4F4F"/>
</svg>
