<?xml version="1.0" standalone="no"?>
<!DOCTYPE svg PUBLIC "-//W3C//DTD SVG 20010904//EN"
 "http://www.w3.org/TR/2001/REC-SVG-20010904/DTD/svg10.dtd">
<svg version="1.0" xmlns="http://www.w3.org/2000/svg"
 width="512.000000pt" height="364.000000pt" viewBox="0 0 512.000000 364.000000"
 preserveAspectRatio="xMidYMid meet">

<g transform="translate(0.000000,364.000000) scale(0.100000,-0.100000)"
fill="#9356a0" stroke="none">
<path d="M2365 3616 c-217 -50 -414 -204 -510 -400 -63 -127 -79 -197 -79
-336 0 -141 17 -210 81 -340 88 -175 250 -312 448 -376 157 -51 366 -42 519
23 179 75 340 236 410 409 166 409 -54 871 -479 1004 -89 28 -299 37 -390 16z
m319 -162 c203 -52 378 -227 430 -430 50 -195 -11 -412 -158 -558 -118 -118
-260 -176 -427 -176 -318 0 -575 241 -596 559 -18 273 170 531 442 606 70 19
234 18 309 -1z"/>
<path d="M4025 3109 c-236 -36 -431 -209 -489 -435 -79 -307 112 -626 424
-709 72 -19 220 -19 295 0 298 78 493 383 431 675 -37 176 -163 340 -316 412
-115 55 -233 74 -345 57z m156 -159 c232 -44 390 -263 352 -486 -48 -279 -354
-439 -610 -318 -80 38 -164 121 -204 201 -33 66 -34 72 -34 183 0 104 3 121
27 173 32 67 114 158 178 195 48 29 155 60 206 61 17 1 55 -4 85 -9z"/>
<path d="M825 3042 c-198 -67 -348 -235 -390 -437 -27 -129 -11 -248 50 -373
176 -357 662 -435 945 -152 228 228 228 592 0 820 -116 116 -251 170 -426 170
-81 0 -113 -5 -179 -28z m253 -132 c140 -23 264 -114 325 -239 30 -63 32 -72
32 -181 0 -109 -2 -118 -32 -181 -39 -79 -130 -169 -205 -204 -262 -119 -563
38 -611 319 -42 246 150 475 413 495 8 0 43 -4 78 -9z"/>
<path d="M2330 2005 c-172 -29 -344 -92 -493 -182 -72 -44 -256 -187 -271
-212 -4 -6 -40 7 -94 34 -283 143 -616 146 -899 10 -283 -137 -481 -388 -549
-700 -21 -94 -31 -438 -15 -509 14 -62 57 -118 112 -146 37 -19 60 -20 542
-20 l504 0 12 -60 c15 -73 57 -133 126 -175 l48 -30 1194 -3 c1148 -2 1196 -2
1237 16 99 44 153 125 163 243 l6 68 513 3 512 3 44 30 c23 17 54 51 68 75 25
44 25 48 25 265 -1 138 -6 242 -14 280 -89 420 -385 717 -806 806 -92 20 -304
17 -400 -5 -105 -24 -214 -66 -299 -116 l-68 -40 -83 68 c-196 159 -413 257
-660 297 -109 18 -350 18 -455 0z m461 -161 c383 -72 716 -331 885 -689 89
-188 114 -334 114 -670 0 -254 -2 -265 -50 -302 -11 -10 -280 -12 -1181 -13
l-1166 0 -27 27 c-14 14 -29 37 -32 50 -4 13 -4 148 -1 301 4 202 10 295 21
345 87 371 313 666 642 834 148 76 287 116 474 137 58 7 240 -5 321 -20z
m1537 -214 c296 -84 511 -294 598 -585 24 -81 27 -110 32 -298 4 -189 3 -209
-13 -227 -18 -19 -34 -20 -505 -20 l-487 0 -6 153 c-3 83 -13 191 -21 238 -33
183 -119 392 -221 533 -28 40 -55 78 -59 84 -15 25 153 104 284 133 111 25
291 20 398 -11z m-3105 -59 c85 -22 231 -86 224 -98 -3 -4 -26 -39 -51 -77
-92 -137 -171 -332 -201 -501 -9 -50 -19 -173 -22 -278 l-6 -188 -489 3 c-471
3 -490 4 -504 22 -20 28 -19 323 1 441 63 359 351 637 720 695 84 13 237 4
328 -19z"/>
</g>
</svg>
