<?xml version="1.0" standalone="no"?>
<!DOCTYPE svg PUBLIC "-//W3C//DTD SVG 20010904//EN"
 "http://www.w3.org/TR/2001/REC-SVG-20010904/DTD/svg10.dtd">
<svg version="1.0" xmlns="http://www.w3.org/2000/svg"
 width="410.000000pt" height="512.000000pt" viewBox="0 0 410.000000 512.000000"
 preserveAspectRatio="xMidYMid meet">

<g transform="translate(0.000000,512.000000) scale(0.100000,-0.100000)"
fill="#9356a0" stroke="none">
<path d="M1320 5105 c-183 -34 -358 -168 -438 -336 -52 -108 -66 -182 -59
-312 6 -124 30 -199 96 -300 74 -113 189 -203 314 -247 86 -31 258 -39 347
-16 175 44 330 166 405 319 43 87 42 119 -6 146 -44 24 -78 2 -119 -77 -62
-121 -176 -213 -305 -247 -250 -65 -515 91 -579 341 -43 166 3 332 124 455 99
100 217 144 366 137 122 -7 217 -49 305 -137 54 -55 129 -181 129 -218 0 -7
14 -20 30 -28 60 -31 117 23 98 93 -50 185 -238 366 -431 416 -85 22 -194 27
-277 11z"/>
<path d="M1357 4820 c-242 -61 -334 -360 -167 -544 126 -137 329 -148 465 -25
79 73 110 142 110 244 -1 136 -63 238 -180 296 -70 34 -160 46 -228 29z m163
-155 c29 -15 73 -60 89 -93 18 -35 15 -117 -6 -159 -55 -110 -202 -138 -297
-54 -51 45 -71 146 -42 214 16 40 77 95 114 103 15 3 32 7 37 9 16 5 78 -7
105 -20z"/>
<path d="M2315 4465 c-28 -27 -31 -45 -14 -78 16 -30 28 -37 65 -37 31 0 60
22 65 50 6 31 -12 71 -37 80 -38 15 -53 12 -79 -15z"/>
<path d="M3334 4216 c-279 -87 -305 -488 -40 -616 72 -34 182 -39 258 -10 75
28 150 96 185 168 24 49 28 69 28 142 0 73 -4 93 -28 142 -35 71 -110 140
-183 167 -63 24 -157 27 -220 7z m182 -145 c79 -36 125 -132 103 -213 -43
-163 -244 -199 -339 -61 -27 40 -37 116 -21 166 33 100 158 153 257 108z"/>
<path d="M2650 4190 c-26 -26 -26 -81 -2 -103 19 -17 68 -22 88 -9 15 10 34
47 34 67 0 25 -46 65 -75 65 -14 0 -34 -9 -45 -20z"/>
<path d="M2324 4172 c-27 -18 -34 -56 -34 -181 l0 -131 -25 0 c-13 0 -58 -11
-100 -24 l-75 -24 0 55 c0 44 -5 58 -25 78 -30 30 -54 31 -89 4 -25 -20 -26
-24 -26 -126 l0 -105 -53 -58 c-29 -31 -69 -87 -88 -123 l-34 -66 -40 38
c-128 121 -337 231 -440 231 -38 0 -52 -6 -83 -34 l-37 -34 -5 -308 -5 -308
-71 -41 c-288 -163 -518 -443 -623 -758 -24 -72 -61 -225 -61 -253 0 -2 -64
-4 -142 -4 -118 0 -150 -4 -184 -19 -74 -34 -74 -33 -74 -493 0 -371 1 -406
18 -437 35 -66 58 -71 322 -72 l235 0 55 -87 c114 -179 342 -373 553 -472 l87
-41 0 -114 0 -115 -616 -2 -616 -3 -19 -24 c-24 -30 -24 -62 0 -92 l19 -24
2002 0 2002 0 19 24 c24 30 24 62 0 92 l-19 24 -291 3 -291 3 0 183 0 184 49
36 c169 121 324 303 420 493 118 236 158 443 148 768 -8 252 -49 430 -144 620
-41 82 -129 216 -172 263 -53 56 -131 37 -131 -34 0 -20 18 -54 59 -107 153
-205 232 -434 247 -717 11 -210 -13 -411 -69 -575 -74 -217 -247 -454 -419
-576 -34 -24 -77 -58 -95 -76 l-33 -31 0 -216 0 -216 -239 0 -239 0 -11 63
c-5 34 -13 87 -17 117 -5 36 -15 61 -30 77 -22 22 -30 23 -172 23 -136 0 -152
-2 -176 -21 -29 -23 -35 -63 -12 -95 12 -16 30 -20 132 -24 l119 -5 11 -68 11
-67 -327 0 -327 0 9 58 c12 82 12 82 63 82 54 0 85 25 85 69 0 51 -38 71 -137
71 -112 0 -125 -13 -142 -131 -7 -46 -14 -99 -18 -116 l-5 -33 -239 0 -239 0
0 149 c0 179 1 177 -119 226 -229 94 -424 256 -568 473 -47 71 -84 117 -100
123 -13 5 -130 9 -259 9 l-234 0 0 360 0 360 169 0 c162 0 171 1 196 23 21 18
28 36 36 97 38 278 149 508 343 708 98 101 180 163 306 231 52 29 98 57 102
64 4 7 8 148 8 315 0 266 2 302 16 302 28 0 178 -81 250 -135 39 -29 92 -78
117 -108 45 -51 47 -57 47 -114 0 -121 50 -261 129 -361 l41 -52 -30 0 c-33 0
-70 -15 -82 -34 -15 -22 -8 -73 13 -92 20 -18 44 -19 564 -19 520 0 544 1 564
19 13 12 21 31 21 52 0 46 -38 74 -101 74 l-48 0 54 80 c30 44 58 92 61 105 8
34 34 33 159 -9 110 -37 198 -78 283 -132 60 -39 103 -43 132 -14 52 52 10
106 -146 187 -112 58 -184 87 -299 118 l-80 22 3 54 c8 137 -60 322 -157 431
l-51 56 0 75 c0 82 -14 111 -60 122 -36 8 -80 -27 -80 -64 0 -15 -2 -30 -5
-33 -3 -2 -35 6 -72 18 -38 13 -78 24 -90 24 -21 0 -22 4 -25 139 -3 120 -6
142 -22 160 -19 21 -70 28 -92 13z m126 -457 c109 -15 255 -117 316 -221 88
-150 86 -351 -5 -493 -39 -61 -115 -132 -169 -160 -38 -19 -58 -21 -240 -21
l-200 0 -62 41 c-194 130 -263 386 -161 594 72 145 202 241 360 264 55 8 72 8
161 -4z"/>
<path d="M2254 3566 c-95 -31 -178 -114 -210 -208 -23 -69 -16 -188 14 -248
30 -63 97 -128 162 -159 75 -36 201 -36 272 -2 71 34 130 92 163 157 25 51 29
71 30 144 0 101 -20 153 -86 225 -64 69 -127 98 -224 102 -49 2 -96 -2 -121
-11z m181 -145 c142 -64 148 -262 12 -333 -55 -28 -131 -29 -176 -3 -114 67
-135 208 -44 299 57 57 135 71 208 37z"/>
<path d="M390 3881 c-91 -30 -164 -91 -208 -176 -24 -44 -27 -62 -27 -145 0
-83 3 -101 27 -145 33 -64 89 -120 153 -153 44 -24 62 -27 145 -27 83 0 101 3
145 27 64 33 120 89 153 153 24 44 27 62 27 145 0 84 -3 101 -28 147 -60 115
-154 175 -282 179 -44 2 -91 0 -105 -5z m158 -146 c160 -67 160 -283 0 -350
-47 -19 -89 -19 -136 0 -157 66 -161 275 -7 346 49 23 94 24 143 4z"/>
<path d="M865 2095 c-25 -24 -25 -24 -25 -238 0 -202 1 -216 21 -241 26 -33
77 -36 105 -5 17 19 19 39 19 246 0 224 0 225 -24 244 -32 26 -67 24 -96 -6z"/>
</g>
</svg>
