<?xml version="1.0" standalone="no"?>
<!DOCTYPE svg PUBLIC "-//W3C//DTD SVG 20010904//EN"
 "http://www.w3.org/TR/2001/REC-SVG-20010904/DTD/svg10.dtd">
<svg version="1.0" xmlns="http://www.w3.org/2000/svg"
 width="492.000000pt" height="512.000000pt" viewBox="0 0 492.000000 512.000000"
 preserveAspectRatio="xMidYMid meet">

<g transform="translate(0.000000,512.000000) scale(0.100000,-0.100000)"
fill="#9356a0" stroke="none">
<path d="M1488 5100 c-245 -70 -429 -231 -500 -438 -31 -93 -32 -240 0 -330
75 -213 265 -375 517 -443 116 -32 317 -32 433 -1 147 40 255 97 356 192 54
50 117 138 133 186 21 62 -25 114 -101 114 -43 0 -76 -27 -106 -85 -52 -100
-195 -203 -335 -240 -81 -22 -242 -22 -325 0 -155 40 -286 139 -347 263 -83
167 -48 350 92 481 183 171 466 207 703 90 106 -52 180 -125 232 -229 39 -78
65 -100 116 -100 38 0 80 26 93 58 10 24 9 37 -9 81 -74 189 -267 344 -505
406 -89 23 -358 20 -447 -5z"/>
<path d="M1578 4821 c-166 -53 -268 -178 -268 -327 0 -319 480 -465 725 -219
72 71 97 128 97 219 0 153 -100 273 -273 327 -79 25 -204 24 -281 0z m251
-177 c149 -74 126 -263 -38 -311 -121 -35 -256 29 -275 131 -28 150 158 257
313 180z"/>
<path d="M2759 4469 c-33 -35 -35 -48 -15 -88 35 -67 144 -66 181 3 16 30 16
34 1 65 -32 60 -119 71 -167 20z"/>
<path d="M4050 4243 c-130 -22 -233 -89 -303 -198 -30 -47 -32 -55 -32 -145 0
-114 10 -137 99 -226 67 -67 131 -98 243 -116 117 -20 271 23 365 102 21 17
54 61 75 97 33 61 37 73 37 143 0 68 -4 83 -33 136 -18 32 -52 76 -75 97 -92
85 -251 131 -376 110z m177 -194 c141 -68 135 -249 -12 -305 -67 -25 -170 -17
-223 19 -46 30 -82 90 -82 137 0 63 53 132 121 159 45 18 149 13 196 -10z"/>
<path d="M3159 4191 c-33 -34 -36 -51 -12 -92 20 -33 70 -53 112 -44 74 16 98
94 45 143 -39 34 -107 31 -145 -7z"/>
<path d="M2781 4186 c-42 -23 -50 -52 -51 -183 l0 -122 -57 -11 c-32 -6 -78
-18 -102 -26 -25 -8 -46 -14 -48 -14 -2 0 -3 22 -3 49 0 43 -4 53 -31 75 -50
42 -134 31 -158 -21 -6 -13 -11 -66 -11 -118 l0 -93 -40 -32 c-43 -34 -122
-131 -141 -173 l-11 -25 -77 55 c-150 109 -419 220 -506 211 -59 -7 -112 -35
-135 -73 -19 -30 -20 -49 -20 -323 l0 -291 -102 -52 c-123 -61 -267 -155 -361
-236 -189 -161 -359 -421 -417 -633 -12 -47 -26 -96 -30 -110 l-7 -25 -184 -5
c-205 -6 -230 -12 -268 -73 -20 -33 -21 -45 -21 -447 0 -405 0 -413 22 -448
41 -67 67 -72 383 -72 l280 0 82 -99 c160 -195 382 -352 642 -457 l106 -42 3
-106 3 -106 -730 0 -729 0 -31 -26 c-39 -33 -42 -80 -8 -112 l23 -22 2416 0
2417 0 20 29 c27 38 26 64 -3 98 l-24 28 -346 3 -346 3 0 177 0 177 50 28
c138 77 333 251 430 382 185 249 260 485 260 817 0 318 -70 553 -233 780 -97
135 -175 215 -219 223 -43 8 -83 -8 -111 -46 -26 -36 -18 -56 55 -137 152
-171 244 -351 282 -553 24 -127 22 -413 -4 -544 -62 -321 -280 -609 -603 -796
-112 -66 -107 -50 -107 -297 l0 -212 -272 2 -273 3 -23 115 c-13 63 -30 122
-39 132 -26 29 -68 34 -261 28 l-184 -5 -24 -30 c-32 -40 -30 -65 7 -101 30
-29 32 -29 163 -32 l133 -3 10 -55 10 -54 -373 0 -373 0 5 33 c13 79 11 77 55
77 75 0 129 41 129 96 0 9 -13 29 -29 45 -29 29 -30 29 -151 29 -119 0 -122
-1 -149 -28 -23 -22 -31 -45 -45 -127 -10 -55 -20 -106 -22 -112 -3 -10 -66
-13 -274 -13 l-270 0 0 146 c0 145 0 146 -28 173 -17 17 -59 38 -112 55 -123
40 -260 107 -375 183 -114 76 -290 245 -349 336 -57 88 -51 87 -381 87 l-285
0 0 349 0 350 210 3 c209 3 210 3 234 28 19 20 27 42 36 106 21 162 103 352
215 501 49 64 206 215 275 264 93 66 197 124 292 165 139 59 128 28 128 376
l0 298 63 -24 c141 -53 264 -126 359 -214 58 -54 58 -55 58 -111 0 -117 68
-276 156 -363 l37 -38 -32 0 c-45 0 -86 -24 -101 -59 -10 -25 -9 -34 6 -60 9
-16 28 -34 41 -40 16 -8 227 -11 671 -11 626 0 648 1 679 20 39 23 52 63 32
99 -20 35 -55 51 -112 51 l-47 0 44 54 c24 29 54 72 66 94 26 46 20 46 162 11
113 -28 208 -64 336 -126 92 -45 119 -54 146 -49 66 13 103 90 62 134 -47 52
-346 174 -531 217 -94 21 -100 24 -98 46 1 13 -2 62 -8 109 -16 133 -86 263
-193 357 -45 40 -46 41 -46 102 0 112 -42 161 -128 148 -40 -7 -82 -46 -82
-76 0 -18 -21 -15 -177 25 -10 3 -13 36 -13 125 0 96 -4 127 -17 150 -27 45
-94 62 -142 35z m184 -491 c191 -41 353 -176 399 -334 56 -192 -46 -401 -246
-500 l-61 -31 -230 0 -229 0 -68 36 c-38 19 -87 51 -109 71 -116 99 -173 264
-137 401 23 90 51 139 120 208 136 135 353 193 561 149z"/>
<path d="M2724 3586 c-126 -29 -226 -102 -281 -208 -39 -74 -39 -179 -1 -253
39 -76 99 -132 186 -173 68 -33 87 -37 174 -40 157 -7 281 43 364 144 180 220
9 518 -309 539 -43 3 -97 -1 -133 -9z m213 -187 c110 -53 132 -183 43 -262
-127 -115 -360 -43 -360 111 0 67 34 118 105 155 45 24 158 22 212 -4z"/>
<path d="M480 3899 c-68 -13 -183 -74 -223 -118 -19 -21 -48 -60 -63 -87 -26
-44 -29 -58 -29 -134 0 -76 3 -90 29 -134 46 -79 94 -124 170 -161 141 -69
287 -68 426 1 73 37 136 98 173 169 29 54 30 192 3 248 -78 159 -291 254 -486
216z m197 -185 c111 -53 143 -181 64 -261 -112 -113 -349 -65 -368 75 -12 86
17 140 97 183 46 24 158 26 207 3z"/>
<path d="M1055 2126 c-58 -25 -60 -31 -63 -255 -2 -127 1 -217 7 -234 27 -69
122 -84 174 -27 l27 30 0 213 c0 236 -3 247 -66 273 -40 17 -41 17 -79 0z"/>
</g>
</svg>
