<?xml version="1.0" standalone="no"?>
<!DOCTYPE svg PUBLIC "-//W3C//DTD SVG 20010904//EN"
 "http://www.w3.org/TR/2001/REC-SVG-20010904/DTD/svg10.dtd">
<svg version="1.0" xmlns="http://www.w3.org/2000/svg"
 width="512.000000pt" height="512.000000pt" viewBox="0 0 512.000000 512.000000"
 preserveAspectRatio="xMidYMid meet">

<g transform="translate(0.000000,512.000000) scale(0.100000,-0.100000)"
fill="#0b0205" stroke="none">
<path d="M2321 5109 c-486 -43 -989 -249 -1376 -564 -114 -92 -294 -274 -384
-387 -229 -287 -417 -675 -495 -1023 -49 -218 -60 -325 -60 -575 0 -250 11
-357 60 -575 79 -355 272 -749 509 -1040 92 -114 274 -294 387 -384 287 -229
675 -417 1023 -495 218 -49 325 -60 575 -60 250 0 357 11 575 60 261 58 603
204 828 353 389 259 688 599 893 1016 165 337 246 658 261 1033 23 598 -168
1183 -545 1672 -84 109 -323 348 -432 432 -528 407 -1164 595 -1819 537z m149
-677 l0 -508 -226 -13 c-295 -16 -566 -48 -832 -97 -46 -9 -85 -14 -87 -12 -6
6 63 169 115 271 205 406 468 680 773 805 70 29 188 60 230 61 l27 1 0 -508z
m290 493 c305 -72 593 -304 809 -653 83 -133 239 -457 226 -470 -2 -2 -54 6
-117 17 -302 53 -503 76 -802 92 l-226 13 0 508 0 508 23 0 c12 0 51 -7 87
-15z m-1051 -194 c-108 -111 -217 -246 -299 -371 -75 -115 -207 -382 -250
-505 l-31 -90 -340 -59 c-187 -32 -343 -56 -346 -53 -7 7 43 96 124 219 224
343 547 630 924 824 62 32 279 123 295 123 6 1 -29 -39 -77 -88z m1738 45
c451 -181 843 -501 1106 -904 81 -123 131 -212 124 -219 -3 -3 -159 21 -346
53 l-340 59 -31 90 c-43 123 -175 390 -250 505 -82 125 -191 260 -299 371 -48
49 -84 89 -80 89 4 0 56 -20 116 -44z m-977 -1576 l0 -550 -680 0 -681 0 6
108 c14 241 59 533 115 746 16 60 31 110 32 111 2 1 102 18 223 38 340 57 666
91 913 96 l72 1 0 -550z m433 540 c226 -14 461 -42 732 -87 121 -20 221 -37
223 -38 1 -1 16 -51 32 -111 56 -213 101 -505 115 -746 l6 -108 -681 0 -680 0
0 550 0 550 40 0 c23 0 118 -5 213 -10z m-1833 -171 c0 -6 -11 -54 -24 -107
-49 -194 -86 -453 -101 -704 l-7 -108 -384 0 -384 0 4 23 c3 12 7 60 11 107
11 169 58 384 122 568 20 57 41 106 47 108 14 5 675 122 699 123 9 1 17 -4 17
-10z m3343 -50 c193 -33 354 -62 358 -64 3 -3 22 -51 42 -107 64 -184 111
-399 122 -568 4 -47 8 -95 11 -107 l4 -23 -384 0 -384 0 -7 108 c-15 251 -52
510 -101 704 -25 102 -28 118 -18 118 4 0 164 -27 357 -61z m-3468 -1156 c15
-254 52 -508 102 -711 14 -56 23 -105 21 -108 -5 -5 -706 113 -719 121 -3 3
-22 51 -42 107 -64 184 -111 399 -122 568 -4 47 -8 95 -11 108 l-4 22 384 0
384 0 7 -107z m1525 -443 l0 -550 -40 0 c-93 0 -397 22 -555 41 -143 16 -604
87 -613 94 -1 1 -16 51 -32 111 -56 213 -101 505 -115 747 l-6 107 681 0 680
0 0 -550z m1535 443 c-14 -242 -59 -534 -115 -747 -16 -60 -31 -110 -32 -111
-9 -7 -470 -78 -613 -94 -158 -19 -462 -41 -555 -41 l-40 0 0 550 0 550 680 0
681 0 -6 -107z m941 85 c-3 -13 -7 -61 -11 -108 -11 -169 -58 -384 -122 -568
-20 -56 -39 -104 -42 -107 -13 -8 -714 -126 -719 -121 -2 3 7 52 21 108 50
203 87 457 102 711 l7 107 384 0 384 0 -4 -22z m-4154 -1035 l337 -58 31 -90
c43 -123 175 -390 250 -505 82 -125 191 -260 299 -371 48 -49 84 -89 80 -89
-14 0 -224 87 -287 119 -348 176 -657 438 -880 747 -54 75 -182 283 -182 296
0 11 -14 13 352 -49z m3888 49 c0 -13 -128 -221 -182 -296 -223 -309 -532
-571 -880 -747 -63 -32 -273 -119 -287 -119 -4 0 32 40 80 89 108 111 217 246
299 371 75 115 207 382 250 505 l31 90 322 57 c339 59 367 63 367 50z m-3264
-157 c256 -48 543 -81 832 -97 l222 -12 0 -508 c0 -584 15 -521 -113 -492
-413 94 -792 496 -1020 1082 -9 23 -13 42 -8 42 5 0 44 -7 87 -15z m2363 -37
c-226 -578 -606 -978 -1016 -1072 -128 -29 -113 -92 -113 492 l0 508 223 12
c282 16 641 58 852 102 79 16 77 17 54 -42z"/>
</g>
</svg>
